<svg id="Camada_1" data-name="Camada 1" xmlns="http://www.w3.org/2000/svg" viewBox="0 0 190 36.63"><defs><style>.cls-1{fill:#2b2b2b;}.cls-2{fill:#4073b0;}</style></defs><path class="cls-1" d="M62.38,9.84v2H59.73a17,17,0,0,0-3.3.26,3.69,3.69,0,0,0-2,1,3.78,3.78,0,0,0-.95,2,19.57,19.57,0,0,0-.24,3.41,19.57,19.57,0,0,0,.24,3.41,3.78,3.78,0,0,0,.95,2,3.69,3.69,0,0,0,2,1,17,17,0,0,0,3.3.26h2.65v2H59.7a16.17,16.17,0,0,1-4-.42,5.44,5.44,0,0,1-2.57-1.41,5.65,5.65,0,0,1-1.36-2.66,18.11,18.11,0,0,1-.4-4.17,18.11,18.11,0,0,1,.4-4.17,5.65,5.65,0,0,1,1.36-2.66,5.44,5.44,0,0,1,2.57-1.41,16.17,16.17,0,0,1,4-.42Z" transform="translate(0 -0.18)"/><path class="cls-1" d="M70.51,9.84a12.66,12.66,0,0,1,3.24.35,3.55,3.55,0,0,1,2,1.3,5.73,5.73,0,0,1,1,2.63,30.51,30.51,0,0,1,.25,4.38,30.39,30.39,0,0,1-.25,4.36,5.72,5.72,0,0,1-1,2.65,3.55,3.55,0,0,1-2,1.3,15.26,15.26,0,0,1-6.5,0,3.47,3.47,0,0,1-2-1.3,6,6,0,0,1-1-2.63,30.3,30.3,0,0,1-.26-4.38,30.19,30.19,0,0,1,.26-4.36,6,6,0,0,1,1-2.65,3.47,3.47,0,0,1,2-1.3A12.61,12.61,0,0,1,70.51,9.84Zm0,1.93a10.78,10.78,0,0,0-2.42.2,2.13,2.13,0,0,0-1.32.89,4.44,4.44,0,0,0-.59,2C66.09,15.75,66,17,66,18.5s0,2.71.12,3.61a4.44,4.44,0,0,0,.6,2,2.18,2.18,0,0,0,1.33.89,10.78,10.78,0,0,0,2.42.2,11.16,11.16,0,0,0,2.41-.2,2.12,2.12,0,0,0,1.35-.88,4.49,4.49,0,0,0,.59-2C75,21.23,75,20,75,18.5s0-2.75-.13-3.64a4.48,4.48,0,0,0-.59-2A2.12,2.12,0,0,0,72.92,12,11.16,11.16,0,0,0,70.51,11.77Z" transform="translate(0 -0.18)"/><path class="cls-1" d="M90.94,9.84h2V25.55a1.55,1.55,0,0,1-.45,1.19,1.62,1.62,0,0,1-1.14.42H89.16a2.16,2.16,0,0,1-1.1-.27A1.58,1.58,0,0,1,87.4,26L82.92,12.32a.69.69,0,0,0-.32-.4,1.11,1.11,0,0,0-.54-.12h-.51a.45.45,0,0,0-.35.11.54.54,0,0,0-.11.38V27.16h-2V11.45a1.55,1.55,0,0,1,.44-1.19,1.57,1.57,0,0,1,1.14-.42h2.12a2.23,2.23,0,0,1,1.09.27,1.4,1.4,0,0,1,.67.85l4.49,13.7a.65.65,0,0,0,.33.42,1,1,0,0,0,.47.12h.56a.47.47,0,0,0,.37-.12.72.72,0,0,0,.1-.42Z" transform="translate(0 -0.18)"/><path class="cls-1" d="M107.13,9.84h2V25.55a1.55,1.55,0,0,1-.45,1.19,1.61,1.61,0,0,1-1.14.42h-2.17a2.1,2.1,0,0,1-1.09-.27,1.54,1.54,0,0,1-.66-.85L99.11,12.32a.65.65,0,0,0-.32-.4,1.07,1.07,0,0,0-.53-.12h-.52a.45.45,0,0,0-.35.11.54.54,0,0,0-.11.38V27.16h-2V11.45a1.48,1.48,0,0,1,1.59-1.61H99a2.22,2.22,0,0,1,1.08.27,1.37,1.37,0,0,1,.67.85l4.49,13.7a.65.65,0,0,0,.33.42,1,1,0,0,0,.48.12h.56a.44.44,0,0,0,.36-.12.65.65,0,0,0,.1-.42Z" transform="translate(0 -0.18)"/><path class="cls-1" d="M122.67,9.84v2h-4.32c-1.2,0-2.13,0-2.78.09a2.28,2.28,0,0,0-1.45.57,2.32,2.32,0,0,0-.56,1.48c-.06.67-.09,1.6-.09,2.81v.49h7.17v2h-7.17v1c0,1.21,0,2.14.08,2.81a2.29,2.29,0,0,0,.56,1.5,2.23,2.23,0,0,0,1.47.56c.66,0,1.58.08,2.77.08h4.32v2h-4.32a26.54,26.54,0,0,1-3.64-.2,3.51,3.51,0,0,1-2.08-.93,3.62,3.62,0,0,1-.91-2.1,27.53,27.53,0,0,1-.2-3.7V16.77a27.53,27.53,0,0,1,.2-3.7,3.62,3.62,0,0,1,.91-2.1,3.51,3.51,0,0,1,2.08-.93,26.54,26.54,0,0,1,3.64-.2Z" transform="translate(0 -0.18)"/><path class="cls-1" d="M135.18,9.84v2h-2.66a16.92,16.92,0,0,0-3.29.26,3.69,3.69,0,0,0-1.95,1,3.78,3.78,0,0,0-1,2,18.51,18.51,0,0,0-.25,3.41,18.51,18.51,0,0,0,.25,3.41,3.78,3.78,0,0,0,1,2,3.69,3.69,0,0,0,1.95,1,16.92,16.92,0,0,0,3.29.26h2.66v2H132.5a16.2,16.2,0,0,1-4-.42,5.36,5.36,0,0,1-2.56-1.41,5.66,5.66,0,0,1-1.37-2.66,18.68,18.68,0,0,1-.4-4.17,18.68,18.68,0,0,1,.4-4.17,5.66,5.66,0,0,1,1.37-2.66,5.36,5.36,0,0,1,2.56-1.41,16.2,16.2,0,0,1,4-.42Z" transform="translate(0 -0.18)"/><path class="cls-1" d="M137.37,9.84h11.25v2H144V27.16h-1.92V11.82h-4.69Z" transform="translate(0 -0.18)"/><path class="cls-1" d="M160.05,9.84v2H156a11.46,11.46,0,0,0-1.53.09,3.36,3.36,0,0,0-1.09.31,1.78,1.78,0,0,0-.66.58,1.56,1.56,0,0,0-.23.85,3.07,3.07,0,0,0,.21,1.18,2.71,2.71,0,0,0,.69.94,6.66,6.66,0,0,0,1.33.86c.57.29,1.29.62,2.19,1a13.72,13.72,0,0,1,2.16,1,4.78,4.78,0,0,1,1.4,1.2,4.45,4.45,0,0,1,.75,1.49,6.57,6.57,0,0,1,.25,1.92,3.8,3.8,0,0,1-.2,1.27,3,3,0,0,1-.55,1,3.43,3.43,0,0,1-.86.73,5.36,5.36,0,0,1-1.16.52,8.3,8.3,0,0,1-1.37.31,12.57,12.57,0,0,1-1.57.1H151v-2h4.83a11.66,11.66,0,0,0,1.68-.1,4.09,4.09,0,0,0,1.17-.33,1.57,1.57,0,0,0,.68-.61,1.68,1.68,0,0,0,.22-.89,4.12,4.12,0,0,0-.16-1.21,2.62,2.62,0,0,0-.52-1,3.93,3.93,0,0,0-1-.83,11.23,11.23,0,0,0-1.65-.78,27.57,27.57,0,0,1-2.77-1.26,7.14,7.14,0,0,1-1.71-1.25,4,4,0,0,1-.89-1.45,6,6,0,0,1-.26-1.85,4.17,4.17,0,0,1,.18-1.26,2.79,2.79,0,0,1,.54-1,3.28,3.28,0,0,1,.82-.71,5.33,5.33,0,0,1,1.08-.47,8,8,0,0,1,1.33-.27A12,12,0,0,1,156,9.84Z" transform="translate(0 -0.18)"/><path class="cls-1" d="M174.81,9.84v2h-4.32c-1.2,0-2.13,0-2.78.09a2.28,2.28,0,0,0-1.45.57A2.26,2.26,0,0,0,165.7,14c-.06.67-.09,1.6-.09,2.81v.49h7.17v2h-7.17v1c0,1.21,0,2.14.08,2.81a2.29,2.29,0,0,0,.56,1.5,2.21,2.21,0,0,0,1.47.56c.66,0,1.58.08,2.77.08h4.32v2h-4.32a26.81,26.81,0,0,1-3.65-.2,3.5,3.5,0,0,1-2.07-.93,3.62,3.62,0,0,1-.91-2.1,27.53,27.53,0,0,1-.2-3.7V16.77a27.53,27.53,0,0,1,.2-3.7,3.62,3.62,0,0,1,.91-2.1,3.5,3.5,0,0,1,2.07-.93,26.81,26.81,0,0,1,3.65-.2Z" transform="translate(0 -0.18)"/><path class="cls-1" d="M178.78,27.16h-2l1.86-12.72a14.62,14.62,0,0,1,.5-2.35,3.16,3.16,0,0,1,.79-1.39,2.55,2.55,0,0,1,1.34-.67,13.3,13.3,0,0,1,4.24,0,2.51,2.51,0,0,1,1.34.67,3.17,3.17,0,0,1,.8,1.39,17.19,17.19,0,0,1,.5,2.35L190,27.16h-2L187.39,23h-8Zm.9-6.09h7.42l-.86-6.15c-.09-.76-.19-1.35-.28-1.77a1.91,1.91,0,0,0-.41-.94,1.17,1.17,0,0,0-.77-.36c-.32,0-.79,0-1.39,0s-1.06,0-1.39,0a1.19,1.19,0,0,0-.77.36,2,2,0,0,0-.42.94,14.76,14.76,0,0,0-.27,1.77Z" transform="translate(0 -0.18)"/><path class="cls-2" d="M19.11,2.59a62.68,62.68,0,0,1-7.6,1.5,1.22,1.22,0,0,1-.67-2.31A18.15,18.15,0,0,1,18.32.18h.5A1.22,1.22,0,0,1,19.11,2.59Z" transform="translate(0 -0.18)"/><path class="cls-2" d="M36.64,18.51a18.18,18.18,0,0,1-.42,3.92,1.22,1.22,0,0,1-1.1.92,85.78,85.78,0,0,0-16.95,3.13A7.91,7.91,0,0,0,13,31.2l-1.18,3a1.25,1.25,0,0,1-1.73.65A18.44,18.44,0,0,1,5.52,31.6a1.23,1.23,0,0,1,.65-2.09c1.59-.27,3-.57,4.23-.85a7.88,7.88,0,0,0,5.44-4.51l2.48-5.65A42.67,42.67,0,0,1,1.08,20.63a1.19,1.19,0,0,1-1-1.1c0-.34,0-.69,0-1A18.57,18.57,0,0,1,.83,13a1.23,1.23,0,0,1,1.24-.83A57.71,57.71,0,0,0,17.7,10.65a7.91,7.91,0,0,0,5.57-4.79l1.27-3.23A1.25,1.25,0,0,1,26.22,2a18.53,18.53,0,0,1,5.06,3.59,1.22,1.22,0,0,1-.68,2.07c-1.72.28-3.28.59-4.6.89a7.91,7.91,0,0,0-5.61,4.82c-.49,1.26-1.19,3-2.07,5.17a66.7,66.7,0,0,1,16.85-3.72,1.21,1.21,0,0,1,1.27,1A18.72,18.72,0,0,1,36.64,18.51Z" transform="translate(0 -0.18)"/><path class="cls-2" d="M24.48,33.17a1.22,1.22,0,0,1,.62,2.35,18.15,18.15,0,0,1-6.78,1.3h-.05A1.22,1.22,0,0,1,18,34.41,64.86,64.86,0,0,1,24.48,33.17Z" transform="translate(0 -0.18)"/><path class="cls-2" d="M19.11,2.59a62.68,62.68,0,0,1-7.6,1.5,1.22,1.22,0,0,1-.67-2.31A18.15,18.15,0,0,1,18.32.18h.5A1.22,1.22,0,0,1,19.11,2.59Z" transform="translate(0 -0.18)"/><path class="cls-2" d="M18,34.41a64.86,64.86,0,0,1,6.46-1.24,1.22,1.22,0,0,1,.62,2.35,18.15,18.15,0,0,1-6.78,1.3h-.05A1.22,1.22,0,0,1,18,34.41Z" transform="translate(0 -0.18)"/></svg>